<mxfile host="app.diagrams.net" agent="Mozilla/5.0 (Windows NT 10.0; Win64; x64) AppleWebKit/537.36 (KHTML, like Gecko) Chrome/127.0.0.0 Safari/537.36" version="24.7.6">
  <diagram name="Page-1" id="vfh0HyMRyMhhatU62EpW">
    <mxGraphModel dx="2173" dy="1800" grid="1" gridSize="10" guides="1" tooltips="1" connect="1" arrows="1" fold="1" page="1" pageScale="1" pageWidth="850" pageHeight="1100" math="0" shadow="0">
      <root>
        <mxCell id="0" />
        <mxCell id="1" parent="0" />
        <mxCell id="2" value="quadiro_assignment" style="whiteSpace=wrap;strokeWidth=2;verticalAlign=top;rounded=1;" parent="1" vertex="1">
          <mxGeometry y="-10" width="146" height="720" as="geometry" />
        </mxCell>
        <mxCell id="miogBx3Jst9TF6kR14ir-22" style="edgeStyle=orthogonalEdgeStyle;rounded=1;orthogonalLoop=1;jettySize=auto;html=1;exitX=0.75;exitY=1;exitDx=0;exitDy=0;" edge="1" parent="1" source="3" target="2">
          <mxGeometry relative="1" as="geometry" />
        </mxCell>
        <mxCell id="3" value="/assets" style="whiteSpace=wrap;strokeWidth=2;rounded=1;" parent="1" vertex="1">
          <mxGeometry x="40" y="35" width="66" height="34" as="geometry" />
        </mxCell>
        <mxCell id="4" value="/templates" style="whiteSpace=wrap;strokeWidth=2;rounded=1;" parent="1" vertex="1">
          <mxGeometry x="25" y="244" width="96" height="34" as="geometry" />
        </mxCell>
        <mxCell id="5" value="/css" style="whiteSpace=wrap;strokeWidth=2;rounded=1;" parent="1" vertex="1">
          <mxGeometry x="221" y="35" width="44" height="34" as="geometry" />
        </mxCell>
        <mxCell id="6" value="styles.css" style="whiteSpace=wrap;strokeWidth=2;rounded=1;" parent="1" vertex="1">
          <mxGeometry x="341" y="35" width="83" height="34" as="geometry" />
        </mxCell>
        <mxCell id="7" value="index.tmpl" style="whiteSpace=wrap;strokeWidth=2;rounded=1;" parent="1" vertex="1">
          <mxGeometry x="197" y="119" width="93" height="34" as="geometry" />
        </mxCell>
        <mxCell id="8" value="login.tmpl" style="whiteSpace=wrap;strokeWidth=2;rounded=1;" parent="1" vertex="1">
          <mxGeometry x="199" y="202" width="89" height="34" as="geometry" />
        </mxCell>
        <mxCell id="9" value="signin.tmpl" style="whiteSpace=wrap;strokeWidth=2;rounded=1;" parent="1" vertex="1">
          <mxGeometry x="196" y="286" width="95" height="34" as="geometry" />
        </mxCell>
        <mxCell id="10" value="das" style="whiteSpace=wrap;strokeWidth=2;rounded=1;" parent="1" vertex="1">
          <mxGeometry x="224" y="370" width="39" height="34" as="geometry" />
        </mxCell>
        <mxCell id="11" value="" style="curved=1;startArrow=none;endArrow=block;exitX=1;exitY=0.5;entryX=0;entryY=0.5;" parent="1" source="3" target="5" edge="1">
          <mxGeometry relative="1" as="geometry">
            <Array as="points" />
          </mxGeometry>
        </mxCell>
        <mxCell id="12" value="" style="curved=1;startArrow=none;endArrow=block;exitX=1.01;exitY=0.5;entryX=0;entryY=0.5;" parent="1" source="5" target="6" edge="1">
          <mxGeometry relative="1" as="geometry">
            <Array as="points" />
          </mxGeometry>
        </mxCell>
        <mxCell id="13" value="" style="curved=1;startArrow=none;endArrow=block;exitX=0.6;exitY=0;entryX=0;entryY=0.49;" parent="1" source="4" target="7" edge="1">
          <mxGeometry relative="1" as="geometry">
            <Array as="points">
              <mxPoint x="146" y="136" />
            </Array>
          </mxGeometry>
        </mxCell>
        <mxCell id="14" value="" style="curved=1;startArrow=none;endArrow=block;exitX=0.8;exitY=0;entryX=0;entryY=0.5;" parent="1" source="4" target="8" edge="1">
          <mxGeometry relative="1" as="geometry">
            <Array as="points">
              <mxPoint x="146" y="219" />
            </Array>
          </mxGeometry>
        </mxCell>
        <mxCell id="15" value="" style="curved=1;startArrow=none;endArrow=block;exitX=0.8;exitY=1;entryX=-0.01;entryY=0.5;" parent="1" source="4" target="9" edge="1">
          <mxGeometry relative="1" as="geometry">
            <Array as="points">
              <mxPoint x="146" y="303" />
            </Array>
          </mxGeometry>
        </mxCell>
        <mxCell id="16" value="" style="curved=1;startArrow=none;endArrow=block;exitX=0.6;exitY=1;entryX=-0.01;entryY=0.49;" parent="1" source="4" target="10" edge="1">
          <mxGeometry relative="1" as="geometry">
            <Array as="points">
              <mxPoint x="146" y="387" />
            </Array>
          </mxGeometry>
        </mxCell>
        <mxCell id="miogBx3Jst9TF6kR14ir-17" value="main.go" style="whiteSpace=wrap;strokeWidth=2;rounded=1;" vertex="1" parent="1">
          <mxGeometry x="25" y="440" width="96" height="34" as="geometry" />
        </mxCell>
        <mxCell id="miogBx3Jst9TF6kR14ir-18" value="handlers.go" style="whiteSpace=wrap;strokeWidth=2;rounded=1;" vertex="1" parent="1">
          <mxGeometry x="25" y="490" width="96" height="34" as="geometry" />
        </mxCell>
        <mxCell id="miogBx3Jst9TF6kR14ir-19" value="&#xa;models.go&#xa;" style="whiteSpace=wrap;strokeWidth=2;rounded=1;" vertex="1" parent="1">
          <mxGeometry x="25" y="533" width="96" height="34" as="geometry" />
        </mxCell>
        <mxCell id="miogBx3Jst9TF6kR14ir-20" value="db.go" style="whiteSpace=wrap;strokeWidth=2;rounded=1;" vertex="1" parent="1">
          <mxGeometry x="25" y="580" width="96" height="34" as="geometry" />
        </mxCell>
        <mxCell id="miogBx3Jst9TF6kR14ir-21" value="auth.go" style="whiteSpace=wrap;strokeWidth=2;rounded=1;" vertex="1" parent="1">
          <mxGeometry x="25" y="630" width="96" height="34" as="geometry" />
        </mxCell>
      </root>
    </mxGraphModel>
  </diagram>
</mxfile>
